<?xml version="1.0" standalone="no"?>
<!DOCTYPE svg PUBLIC "-//W3C//DTD SVG 20010904//EN"
 "http://www.w3.org/TR/2001/REC-SVG-20010904/DTD/svg10.dtd">
<svg version="1.0" xmlns="http://www.w3.org/2000/svg"
 width="1065.000000pt" height="1065.000000pt" viewBox="0 0 1065.000000 1065.000000"
 preserveAspectRatio="xMidYMid meet">
<metadata>
Created by potrace 1.11, written by Peter Selinger 2001-2013
</metadata>
<g transform="translate(0.000000,1065.000000) scale(0.100000,-0.100000)"
fill="#000000" stroke="none">
<path d="M5281 10463 c-41 -24 -239 -139 -440 -255 -201 -116 -625 -360 -941
-543 -316 -183 -854 -493 -1195 -690 -341 -197 -819 -473 -1063 -614 l-442
-255 0 -2412 0 -2412 403 -232 c221 -128 677 -391 1012 -585 1662 -959 2058
-1188 2390 -1380 198 -114 365 -208 370 -208 6 0 172 94 370 208 198 114 621
359 940 543 319 184 652 376 740 427 88 51 421 243 740 427 319 184 761 440
983 567 l402 233 0 2412 0 2412 -442 256 c-244 140 -722 416 -1063 613 -341
197 -822 475 -1070 618 -247 143 -657 380 -910 525 -253 145 -509 293 -568
328 -60 35 -116 64 -125 63 -10 0 -50 -21 -91 -46z m357 -612 c141 -81 595
-343 1007 -581 413 -238 993 -573 1290 -745 297 -172 683 -394 858 -495 l317
-182 0 -2157 0 -2156 -253 -145 c-138 -79 -549 -316 -912 -526 -2340 -1352
-2559 -1477 -2570 -1477 -6 0 -161 87 -345 193 -729 420 -1587 916 -2005 1158
-242 140 -653 376 -912 526 l-473 271 0 2157 0 2156 353 203 c193 111 507 292
697 402 190 110 478 276 640 370 484 279 1507 869 1780 1028 140 81 258 148
263 148 4 1 123 -66 265 -148z"/>
<path d="M2774 7840 c-64 -25 -127 -79 -161 -137 -38 -65 -43 -166 -13 -247
43 -112 160 -196 275 -196 52 0 137 30 185 65 l34 25 2244 0 2243 0 34 -26
c47 -35 127 -64 180 -64 66 0 152 36 206 87 117 110 124 289 15 410 -64 71
-123 98 -217 98 -66 0 -84 -4 -139 -32 l-63 -33 -2259 0 -2259 0 -60 31 c-79
42 -170 49 -245 19z"/>
<path d="M3343 6449 c-63 -24 -132 -90 -163 -155 -60 -123 -5 -294 118 -373
92 -58 206 -59 309 -1 l53 30 1712 0 1713 0 72 -36 c60 -31 81 -36 136 -36
167 0 298 127 299 290 2 245 -265 386 -469 248 l-38 -26 -1711 0 -1711 0 -27
21 c-74 58 -198 74 -293 38z"/>
<path d="M4024 5059 c-61 -23 -134 -92 -164 -154 -16 -33 -22 -65 -22 -116 -1
-61 4 -79 33 -137 77 -151 243 -207 394 -133 l62 31 1048 0 1048 0 63 -31 c90
-44 169 -44 259 0 107 53 165 142 166 254 2 252 -272 395 -474 247 l-41 -30
-1021 0 -1021 0 -41 30 c-84 62 -192 77 -289 39z"/>
<path d="M4629 3697 c-100 -28 -183 -101 -216 -190 -19 -53 -15 -150 8 -214
65 -173 291 -248 436 -145 27 19 51 20 535 27 l507 7 30 -21 c74 -53 178 -67
272 -36 72 24 158 109 182 179 34 98 13 203 -56 288 -96 116 -250 142 -382 63
l-57 -35 -493 0 c-471 0 -493 1 -509 19 -46 50 -178 80 -257 58z"/>
</g>
</svg>
