<?xml version="1.0" encoding="UTF-8" standalone="no"?>
<!-- This is a Stata 16.1 generated SVG file (http://www.stata.com) -->

<svg version="1.1" width="5.50in" height="4.00in" viewBox="0 0 3960 2880" xmlns="http://www.w3.org/2000/svg" xmlns:xlink="http://www.w3.org/1999/xlink">
	<desc>Stata Graph - Graph</desc>
	<rect x="0" y="0" width="3960" height="2880" style="fill:#EAF2F3;stroke:none"/>
	<rect x="0.00" y="0.00" width="3959.88" height="2880.00" style="fill:#EAF2F3"/>
	<rect x="2.88" y="2.88" width="3954.12" height="2874.24" style="fill:none;stroke:#EAF2F3;stroke-width:5.76"/>
	<rect x="243.29" y="100.86" width="3615.73" height="2154.18" style="fill:#FFFFFF"/>
	<rect x="245.45" y="103.02" width="3611.41" height="2149.86" style="fill:none;stroke:#FFFFFF;stroke-width:4.32"/>
	<line x1="243.29" y1="1565.12" x2="3859.02" y2="1565.12" style="stroke:#EAF2F3;stroke-width:6.48"/>
	<line x1="243.29" y1="922.71" x2="3859.02" y2="922.71" style="stroke:#EAF2F3;stroke-width:6.48"/>
	<line x1="243.29" y1="280.30" x2="3859.02" y2="280.30" style="stroke:#EAF2F3;stroke-width:6.48"/>
	<defs>
		<path id="path_KFipqcce" d="M517.89 798.58 L517.89 798.58 L745.10 1117.37 L858.70 1242.49 L972.30 1347.06 L1085.78 1429.73 L1199.38 1492.84 L1312.99 1539.87 L1426.59 1575.14 L1540.07 1602.12 L1653.67 1623.53 L1767.27 1641.84 L1880.88 1658.18 L1994.36 1673.40 L2107.96 1687.63 L2335.16 1713.87 L2448.64 1725.87 L2562.24 1737.01 L2675.85 1747.28 L3016.53 1774.01 L3130.13 1781.68 L3811.62 1817.57 L3811.62 1361.29 L3130.13 1423.54 L3016.53 1434.31 L2675.85 1465.49 L2562.24 1474.90 L2448.64 1483.44 L2335.16 1490.62 L2107.96 1498.66 L1994.36 1498.04 L1880.88 1493.09 L1767.27 1482.57 L1653.67 1465.37 L1540.07 1440.74 L1426.59 1407.45 L1312.99 1364.51 L1199.38 1309.56 L1085.78 1239.27 L972.30 1146.58 L858.70 1018.62 L745.10 832.49 L517.89 148.38 L517.89 798.58 Z" stroke-linejoin="round"/>
	</defs>
	<defs>
		<clipPath id="clipPath_sIUaBBJd">
			<use xlink:href="#path_KFipqcce"/>
		</clipPath>
	</defs>
	<use xlink:href="#path_KFipqcce" style="stroke:none;fill:#E37E00;fill-opacity:0.20"/>
	<use xlink:href="#path_KFipqcce" style="fill:none;stroke:#C0C0C0;stroke-opacity:0.40;stroke-width:12.96" clip-path="url(#clipPath_sIUaBBJd)"/>
	<path d=" M517.89 473.48 L744.98 974.93 L858.58 1130.62 L972.18 1246.82 L1085.78 1334.56 L1199.38 1401.27 L1312.86 1452.25 L1426.47 1491.36 L1540.07 1521.43 L1653.67 1544.57 L1767.15 1562.27 L1880.75 1575.63 L1994.36 1585.78 L2107.96 1593.21 L2335.04 1602.37 L2448.64 1604.72 L2562.24 1605.95 L2675.72 1606.45 L3016.53 1604.22 L3130.01 1602.74 L3811.50 1589.49" stroke-linejoin="round" style="fill:none;stroke:#1A476F;stroke-width:6.48"/>
	<circle cx="1653.67" cy="1680.95" r="19.70" style="fill:#E37E00"/>
	<circle cx="1653.67" cy="1680.95" r="16.46" style="fill:none;stroke:#E37E00;stroke-width:6.48"/>
	<circle cx="1085.78" cy="1597.41" r="19.70" style="fill:#E37E00"/>
	<circle cx="1085.78" cy="1597.41" r="16.46" style="fill:none;stroke:#E37E00;stroke-width:6.48"/>
	<circle cx="1653.67" cy="1719.44" r="19.70" style="fill:#E37E00"/>
	<circle cx="1653.67" cy="1719.44" r="16.46" style="fill:none;stroke:#E37E00;stroke-width:6.48"/>
	<circle cx="1426.47" cy="1588.88" r="19.70" style="fill:#E37E00"/>
	<circle cx="1426.47" cy="1588.88" r="16.46" style="fill:none;stroke:#E37E00;stroke-width:6.48"/>
	<circle cx="858.58" cy="1201.90" r="19.70" style="fill:#E37E00"/>
	<circle cx="858.58" cy="1201.90" r="16.46" style="fill:none;stroke:#E37E00;stroke-width:6.48"/>
	<circle cx="1199.38" cy="1463.88" r="19.70" style="fill:#E37E00"/>
	<circle cx="1199.38" cy="1463.88" r="16.46" style="fill:none;stroke:#E37E00;stroke-width:6.48"/>
	<circle cx="2107.96" cy="1635.41" r="19.70" style="fill:#E37E00"/>
	<circle cx="2107.96" cy="1635.41" r="16.46" style="fill:none;stroke:#E37E00;stroke-width:6.48"/>
	<circle cx="1426.47" cy="1540.86" r="19.70" style="fill:#E37E00"/>
	<circle cx="1426.47" cy="1540.86" r="16.46" style="fill:none;stroke:#E37E00;stroke-width:6.48"/>
	<circle cx="972.18" cy="874.94" r="19.70" style="fill:#E37E00"/>
	<circle cx="972.18" cy="874.94" r="16.46" style="fill:none;stroke:#E37E00;stroke-width:6.48"/>
	<circle cx="1312.86" cy="1683.18" r="19.70" style="fill:#E37E00"/>
	<circle cx="1312.86" cy="1683.18" r="16.46" style="fill:none;stroke:#E37E00;stroke-width:6.48"/>
	<circle cx="744.98" cy="744.75" r="19.70" style="fill:#E37E00"/>
	<circle cx="744.98" cy="744.75" r="16.46" style="fill:none;stroke:#E37E00;stroke-width:6.48"/>
	<circle cx="744.98" cy="344.53" r="19.70" style="fill:#E37E00"/>
	<circle cx="744.98" cy="344.53" r="16.46" style="fill:none;stroke:#E37E00;stroke-width:6.48"/>
	<circle cx="1540.07" cy="163.97" r="19.70" style="fill:#E37E00"/>
	<circle cx="1540.07" cy="163.97" r="16.46" style="fill:none;stroke:#E37E00;stroke-width:6.48"/>
	<circle cx="2448.64" cy="1783.79" r="19.70" style="fill:#E37E00"/>
	<circle cx="2448.64" cy="1783.79" r="16.46" style="fill:none;stroke:#E37E00;stroke-width:6.48"/>
	<circle cx="972.18" cy="1474.65" r="19.70" style="fill:#E37E00"/>
	<circle cx="972.18" cy="1474.65" r="16.46" style="fill:none;stroke:#E37E00;stroke-width:6.48"/>
	<circle cx="1653.67" cy="1628.85" r="19.70" style="fill:#E37E00"/>
	<circle cx="1653.67" cy="1628.85" r="16.46" style="fill:none;stroke:#E37E00;stroke-width:6.48"/>
	<circle cx="1653.67" cy="1551.87" r="19.70" style="fill:#E37E00"/>
	<circle cx="1653.67" cy="1551.87" r="16.46" style="fill:none;stroke:#E37E00;stroke-width:6.48"/>
	<circle cx="1880.75" cy="1736.51" r="19.70" style="fill:#E37E00"/>
	<circle cx="1880.75" cy="1736.51" r="16.46" style="fill:none;stroke:#E37E00;stroke-width:6.48"/>
	<circle cx="1312.86" cy="1699.39" r="19.70" style="fill:#E37E00"/>
	<circle cx="1312.86" cy="1699.39" r="16.46" style="fill:none;stroke:#E37E00;stroke-width:6.48"/>
	<circle cx="2562.24" cy="1695.68" r="19.70" style="fill:#E37E00"/>
	<circle cx="2562.24" cy="1695.68" r="16.46" style="fill:none;stroke:#E37E00;stroke-width:6.48"/>
	<circle cx="1199.38" cy="1692.33" r="19.70" style="fill:#E37E00"/>
	<circle cx="1199.38" cy="1692.33" r="16.46" style="fill:none;stroke:#E37E00;stroke-width:6.48"/>
	<circle cx="972.18" cy="1451.39" r="19.70" style="fill:#E37E00"/>
	<circle cx="972.18" cy="1451.39" r="16.46" style="fill:none;stroke:#E37E00;stroke-width:6.48"/>
	<circle cx="1085.78" cy="1392.73" r="19.70" style="fill:#E37E00"/>
	<circle cx="1085.78" cy="1392.73" r="16.46" style="fill:none;stroke:#E37E00;stroke-width:6.48"/>
	<circle cx="2335.04" cy="1643.70" r="19.70" style="fill:#E37E00"/>
	<circle cx="2335.04" cy="1643.70" r="16.46" style="fill:none;stroke:#E37E00;stroke-width:6.48"/>
	<circle cx="1540.07" cy="1669.69" r="19.70" style="fill:#E37E00"/>
	<circle cx="1540.07" cy="1669.69" r="16.46" style="fill:none;stroke:#E37E00;stroke-width:6.48"/>
	<circle cx="517.89" cy="730.40" r="19.70" style="fill:#E37E00"/>
	<circle cx="517.89" cy="730.40" r="16.46" style="fill:none;stroke:#E37E00;stroke-width:6.48"/>
	<circle cx="517.89" cy="460.98" r="19.70" style="fill:#E37E00"/>
	<circle cx="517.89" cy="460.98" r="16.46" style="fill:none;stroke:#E37E00;stroke-width:6.48"/>
	<circle cx="744.98" cy="477.44" r="19.70" style="fill:#E37E00"/>
	<circle cx="744.98" cy="477.44" r="16.46" style="fill:none;stroke:#E37E00;stroke-width:6.48"/>
	<circle cx="1653.67" cy="1715.60" r="19.70" style="fill:#E37E00"/>
	<circle cx="1653.67" cy="1715.60" r="16.46" style="fill:none;stroke:#E37E00;stroke-width:6.48"/>
	<circle cx="744.98" cy="1516.48" r="19.70" style="fill:#E37E00"/>
	<circle cx="744.98" cy="1516.48" r="16.46" style="fill:none;stroke:#E37E00;stroke-width:6.48"/>
	<circle cx="858.58" cy="1415.50" r="19.70" style="fill:#E37E00"/>
	<circle cx="858.58" cy="1415.50" r="16.46" style="fill:none;stroke:#E37E00;stroke-width:6.48"/>
	<circle cx="1199.38" cy="1627.36" r="19.70" style="fill:#E37E00"/>
	<circle cx="1199.38" cy="1627.36" r="16.46" style="fill:none;stroke:#E37E00;stroke-width:6.48"/>
	<circle cx="744.98" cy="1397.80" r="19.70" style="fill:#E37E00"/>
	<circle cx="744.98" cy="1397.80" r="16.46" style="fill:none;stroke:#E37E00;stroke-width:6.48"/>
	<circle cx="1426.47" cy="1784.78" r="19.70" style="fill:#E37E00"/>
	<circle cx="1426.47" cy="1784.78" r="16.46" style="fill:none;stroke:#E37E00;stroke-width:6.48"/>
	<circle cx="1540.07" cy="1075.17" r="19.70" style="fill:#E37E00"/>
	<circle cx="1540.07" cy="1075.17" r="16.46" style="fill:none;stroke:#E37E00;stroke-width:6.48"/>
	<circle cx="1312.86" cy="1543.09" r="19.70" style="fill:#E37E00"/>
	<circle cx="1312.86" cy="1543.09" r="16.46" style="fill:none;stroke:#E37E00;stroke-width:6.48"/>
	<circle cx="1312.86" cy="1599.52" r="19.70" style="fill:#E37E00"/>
	<circle cx="1312.86" cy="1599.52" r="16.46" style="fill:none;stroke:#E37E00;stroke-width:6.48"/>
	<circle cx="1199.38" cy="1579.35" r="19.70" style="fill:#E37E00"/>
	<circle cx="1199.38" cy="1579.35" r="16.46" style="fill:none;stroke:#E37E00;stroke-width:6.48"/>
	<circle cx="1312.86" cy="1670.43" r="19.70" style="fill:#E37E00"/>
	<circle cx="1312.86" cy="1670.43" r="16.46" style="fill:none;stroke:#E37E00;stroke-width:6.48"/>
	<circle cx="1880.75" cy="1668.57" r="19.70" style="fill:#E37E00"/>
	<circle cx="1880.75" cy="1668.57" r="16.46" style="fill:none;stroke:#E37E00;stroke-width:6.48"/>
	<circle cx="972.18" cy="875.06" r="19.70" style="fill:#E37E00"/>
	<circle cx="972.18" cy="875.06" r="16.46" style="fill:none;stroke:#E37E00;stroke-width:6.48"/>
	<circle cx="2335.04" cy="1610.53" r="19.70" style="fill:#E37E00"/>
	<circle cx="2335.04" cy="1610.53" r="16.46" style="fill:none;stroke:#E37E00;stroke-width:6.48"/>
	<circle cx="3016.53" cy="1639.12" r="19.70" style="fill:#E37E00"/>
	<circle cx="3016.53" cy="1639.12" r="16.46" style="fill:none;stroke:#E37E00;stroke-width:6.48"/>
	<circle cx="1994.36" cy="1631.69" r="19.70" style="fill:#E37E00"/>
	<circle cx="1994.36" cy="1631.69" r="16.46" style="fill:none;stroke:#E37E00;stroke-width:6.48"/>
	<circle cx="2107.96" cy="1374.29" r="19.70" style="fill:#E37E00"/>
	<circle cx="2107.96" cy="1374.29" r="16.46" style="fill:none;stroke:#E37E00;stroke-width:6.48"/>
	<circle cx="1199.38" cy="1685.90" r="19.70" style="fill:#E37E00"/>
	<circle cx="1199.38" cy="1685.90" r="16.46" style="fill:none;stroke:#E37E00;stroke-width:6.48"/>
	<circle cx="1199.38" cy="1462.65" r="19.70" style="fill:#E37E00"/>
	<circle cx="1199.38" cy="1462.65" r="16.46" style="fill:none;stroke:#E37E00;stroke-width:6.48"/>
	<circle cx="1199.38" cy="1573.65" r="19.70" style="fill:#E37E00"/>
	<circle cx="1199.38" cy="1573.65" r="16.46" style="fill:none;stroke:#E37E00;stroke-width:6.48"/>
	<circle cx="1312.86" cy="1536.65" r="19.70" style="fill:#E37E00"/>
	<circle cx="1312.86" cy="1536.65" r="16.46" style="fill:none;stroke:#E37E00;stroke-width:6.48"/>
	<circle cx="1312.86" cy="1600.76" r="19.70" style="fill:#E37E00"/>
	<circle cx="1312.86" cy="1600.76" r="16.46" style="fill:none;stroke:#E37E00;stroke-width:6.48"/>
	<circle cx="1312.86" cy="1639.24" r="19.70" style="fill:#E37E00"/>
	<circle cx="1312.86" cy="1639.24" r="16.46" style="fill:none;stroke:#E37E00;stroke-width:6.48"/>
	<circle cx="1880.75" cy="1671.54" r="19.70" style="fill:#E37E00"/>
	<circle cx="1880.75" cy="1671.54" r="16.46" style="fill:none;stroke:#E37E00;stroke-width:6.48"/>
	<circle cx="1085.78" cy="962.56" r="19.70" style="fill:#E37E00"/>
	<circle cx="1085.78" cy="962.56" r="16.46" style="fill:none;stroke:#E37E00;stroke-width:6.48"/>
	<circle cx="1767.15" cy="1398.79" r="19.70" style="fill:#E37E00"/>
	<circle cx="1767.15" cy="1398.79" r="16.46" style="fill:none;stroke:#E37E00;stroke-width:6.48"/>
	<circle cx="1994.36" cy="956.74" r="19.70" style="fill:#E37E00"/>
	<circle cx="1994.36" cy="956.74" r="16.46" style="fill:none;stroke:#E37E00;stroke-width:6.48"/>
	<circle cx="1767.15" cy="1407.33" r="19.70" style="fill:#E37E00"/>
	<circle cx="1767.15" cy="1407.33" r="16.46" style="fill:none;stroke:#E37E00;stroke-width:6.48"/>
	<circle cx="3130.01" cy="1617.96" r="19.70" style="fill:#E37E00"/>
	<circle cx="3130.01" cy="1617.96" r="16.46" style="fill:none;stroke:#E37E00;stroke-width:6.48"/>
	<circle cx="1880.75" cy="1555.09" r="19.70" style="fill:#E37E00"/>
	<circle cx="1880.75" cy="1555.09" r="16.46" style="fill:none;stroke:#E37E00;stroke-width:6.48"/>
	<circle cx="1540.07" cy="1163.16" r="19.70" style="fill:#E37E00"/>
	<circle cx="1540.07" cy="1163.16" r="16.46" style="fill:none;stroke:#E37E00;stroke-width:6.48"/>
	<circle cx="1540.07" cy="1655.58" r="19.70" style="fill:#E37E00"/>
	<circle cx="1540.07" cy="1655.58" r="16.46" style="fill:none;stroke:#E37E00;stroke-width:6.48"/>
	<circle cx="1994.36" cy="1462.52" r="19.70" style="fill:#E37E00"/>
	<circle cx="1994.36" cy="1462.52" r="16.46" style="fill:none;stroke:#E37E00;stroke-width:6.48"/>
	<circle cx="2335.04" cy="1629.59" r="19.70" style="fill:#E37E00"/>
	<circle cx="2335.04" cy="1629.59" r="16.46" style="fill:none;stroke:#E37E00;stroke-width:6.48"/>
	<circle cx="2562.24" cy="1694.31" r="19.70" style="fill:#E37E00"/>
	<circle cx="2562.24" cy="1694.31" r="16.46" style="fill:none;stroke:#E37E00;stroke-width:6.48"/>
	<circle cx="744.98" cy="538.58" r="19.70" style="fill:#E37E00"/>
	<circle cx="744.98" cy="538.58" r="16.46" style="fill:none;stroke:#E37E00;stroke-width:6.48"/>
	<circle cx="2107.96" cy="1707.18" r="19.70" style="fill:#E37E00"/>
	<circle cx="2107.96" cy="1707.18" r="16.46" style="fill:none;stroke:#E37E00;stroke-width:6.48"/>
	<circle cx="3130.01" cy="1719.56" r="19.70" style="fill:#E37E00"/>
	<circle cx="3130.01" cy="1719.56" r="16.46" style="fill:none;stroke:#E37E00;stroke-width:6.48"/>
	<circle cx="1199.38" cy="1449.65" r="19.70" style="fill:#E37E00"/>
	<circle cx="1199.38" cy="1449.65" r="16.46" style="fill:none;stroke:#E37E00;stroke-width:6.48"/>
	<circle cx="2675.72" cy="1726.00" r="19.70" style="fill:#E37E00"/>
	<circle cx="2675.72" cy="1726.00" r="16.46" style="fill:none;stroke:#E37E00;stroke-width:6.48"/>
	<circle cx="1199.38" cy="1472.79" r="19.70" style="fill:#E37E00"/>
	<circle cx="1199.38" cy="1472.79" r="16.46" style="fill:none;stroke:#E37E00;stroke-width:6.48"/>
	<circle cx="1767.15" cy="1290.26" r="19.70" style="fill:#E37E00"/>
	<circle cx="1767.15" cy="1290.26" r="16.46" style="fill:none;stroke:#E37E00;stroke-width:6.48"/>
	<circle cx="3811.50" cy="1514.13" r="19.70" style="fill:#E37E00"/>
	<circle cx="3811.50" cy="1514.13" r="16.46" style="fill:none;stroke:#E37E00;stroke-width:6.48"/>
	<circle cx="1994.36" cy="1604.10" r="19.70" style="fill:#E37E00"/>
	<circle cx="1994.36" cy="1604.10" r="16.46" style="fill:none;stroke:#E37E00;stroke-width:6.48"/>
	<circle cx="1994.36" cy="1327.51" r="19.70" style="fill:#E37E00"/>
	<circle cx="1994.36" cy="1327.51" r="16.46" style="fill:none;stroke:#E37E00;stroke-width:6.48"/>
	<circle cx="1085.78" cy="666.41" r="19.70" style="fill:#E37E00"/>
	<circle cx="1085.78" cy="666.41" r="16.46" style="fill:none;stroke:#E37E00;stroke-width:6.48"/>
	<line x1="243.29" y1="2255.04" x2="243.29" y2="100.86" style="stroke:#000000;stroke-width:4.32"/>
	<line x1="243.29" y1="2207.52" x2="213.34" y2="2207.52" style="stroke:#000000;stroke-width:4.32"/>
	<text x="175.69" y="2207.52" style="font-family:'Helvetica';font-size:74.99px;fill:#000000" transform="rotate(-90 175.69,2207.52)" text-anchor="middle">0</text>
	<line x1="243.29" y1="1565.12" x2="213.34" y2="1565.12" style="stroke:#000000;stroke-width:4.32"/>
	<text x="175.69" y="1565.12" style="font-family:'Helvetica';font-size:74.99px;fill:#000000" transform="rotate(-90 175.69,1565.12)" text-anchor="middle">5000</text>
	<line x1="243.29" y1="922.71" x2="213.34" y2="922.71" style="stroke:#000000;stroke-width:4.32"/>
	<text x="175.69" y="922.71" style="font-family:'Helvetica';font-size:74.99px;fill:#000000" transform="rotate(-90 175.69,922.71)" text-anchor="middle">10000</text>
	<line x1="243.29" y1="280.30" x2="213.34" y2="280.30" style="stroke:#000000;stroke-width:4.32"/>
	<text x="175.69" y="280.30" style="font-family:'Helvetica';font-size:74.99px;fill:#000000" transform="rotate(-90 175.69,280.30)" text-anchor="middle">15000</text>
	<line x1="243.29" y1="2255.04" x2="3859.02" y2="2255.04" style="stroke:#000000;stroke-width:4.32"/>
	<line x1="290.81" y1="2255.04" x2="290.81" y2="2285.12" style="stroke:#000000;stroke-width:4.32"/>
	<text x="290.81" y="2352.52" style="font-family:'Helvetica';font-size:74.99px;fill:#000000" text-anchor="middle">10</text>
	<line x1="1426.59" y1="2255.04" x2="1426.59" y2="2285.12" style="stroke:#000000;stroke-width:4.32"/>
	<text x="1426.59" y="2352.52" style="font-family:'Helvetica';font-size:74.99px;fill:#000000" text-anchor="middle">20</text>
	<line x1="2562.24" y1="2255.04" x2="2562.24" y2="2285.12" style="stroke:#000000;stroke-width:4.32"/>
	<text x="2562.24" y="2352.52" style="font-family:'Helvetica';font-size:74.99px;fill:#000000" text-anchor="middle">30</text>
	<line x1="3698.02" y1="2255.04" x2="3698.02" y2="2285.12" style="stroke:#000000;stroke-width:4.32"/>
	<text x="3698.02" y="2352.52" style="font-family:'Helvetica';font-size:74.99px;fill:#000000" text-anchor="middle">40</text>
	<text x="2051.16" y="2434.94" style="font-family:'Helvetica';font-size:74.99px;fill:#000000" text-anchor="middle">Mileage (mpg)</text>
	<rect x="1220.67" y="2498.47" width="1661.10" height="254.81" style="fill:#FFFFFF"/>
	<rect x="1222.83" y="2500.63" width="1656.78" height="250.49" style="fill:none;stroke:#000000;stroke-width:4.32"/>
	<rect x="1252.97" y="2530.89" width="280.79" height="74.99" style="fill:#E37E00;fill-opacity:0.20"/>
	<rect x="1256.21" y="2534.13" width="274.31" height="68.52" style="fill:none;stroke:#C0C0C0;stroke-opacity:0.40;stroke-width:6.48"/>
	<line x1="1992.00" y1="2568.39" x2="2272.79" y2="2568.39" style="stroke:#1A476F;stroke-width:6.48"/>
	<circle cx="1393.42" cy="2683.36" r="19.70" style="fill:#E37E00"/>
	<circle cx="1393.42" cy="2683.36" r="16.46" style="fill:none;stroke:#E37E00;stroke-width:6.48"/>
	<text x="1593.78" y="2594.67" style="font-family:'Helvetica';font-size:74.99px;fill:#000000">95% CI</text>
	<text x="2332.81" y="2594.67" style="font-family:'Helvetica';font-size:74.99px;fill:#000000">predicted price</text>
	<text x="1593.78" y="2709.63" style="font-family:'Helvetica';font-size:74.99px;fill:#000000">Price</text>
</svg>
