<?xml version="1.0" encoding="UTF-8" standalone="no"?>
<!-- This is a Stata 16.1 generated SVG file (http://www.stata.com) -->

<svg version="1.1" width="5.50in" height="4.00in" viewBox="0 0 3960 2880" xmlns="http://www.w3.org/2000/svg" xmlns:xlink="http://www.w3.org/1999/xlink">
	<desc>Stata Graph - Graph</desc>
	<rect x="0" y="0" width="3960" height="2880" style="fill:#EAF2F3;stroke:none"/>
	<rect x="0.00" y="0.00" width="3959.88" height="2880.00" style="fill:#EAF2F3"/>
	<rect x="2.88" y="2.88" width="3954.12" height="2874.24" style="fill:none;stroke:#EAF2F3;stroke-width:5.76"/>
	<rect x="303.81" y="100.86" width="3555.21" height="2475.32" style="fill:#FFFFFF"/>
	<rect x="305.82" y="102.88" width="3551.18" height="2471.29" style="fill:none;stroke:#FFFFFF;stroke-width:4.03"/>
	<line x1="303.81" y1="1781.56" x2="3859.02" y2="1781.56" style="stroke:#EAF2F3;stroke-width:6.05"/>
	<line x1="303.81" y1="1031.36" x2="3859.02" y2="1031.36" style="stroke:#EAF2F3;stroke-width:6.05"/>
	<line x1="303.81" y1="281.05" x2="3859.02" y2="281.05" style="stroke:#EAF2F3;stroke-width:6.05"/>
	<circle cx="1689.93" cy="1916.82" r="18.37" style="fill:#E37E00"/>
	<circle cx="1689.93" cy="1916.82" r="15.35" style="fill:none;stroke:#E37E00;stroke-width:6.05"/>
	<circle cx="1130.83" cy="1819.31" r="18.37" style="fill:#E37E00"/>
	<circle cx="1130.83" cy="1819.31" r="15.35" style="fill:none;stroke:#E37E00;stroke-width:6.05"/>
	<circle cx="1689.93" cy="1961.87" r="18.37" style="fill:#E37E00"/>
	<circle cx="1689.93" cy="1961.87" r="15.35" style="fill:none;stroke:#E37E00;stroke-width:6.05"/>
	<circle cx="1466.31" cy="1809.28" r="18.37" style="fill:#E37E00"/>
	<circle cx="1466.31" cy="1809.28" r="15.35" style="fill:none;stroke:#E37E00;stroke-width:6.05"/>
	<circle cx="907.21" cy="1357.46" r="18.37" style="fill:#E37E00"/>
	<circle cx="907.21" cy="1357.46" r="15.35" style="fill:none;stroke:#E37E00;stroke-width:6.05"/>
	<circle cx="1242.70" cy="1663.38" r="18.37" style="fill:#E37E00"/>
	<circle cx="1242.70" cy="1663.38" r="15.35" style="fill:none;stroke:#E37E00;stroke-width:6.05"/>
	<circle cx="2137.29" cy="1863.73" r="18.37" style="fill:#E37E00"/>
	<circle cx="2137.29" cy="1863.73" r="15.35" style="fill:none;stroke:#E37E00;stroke-width:6.05"/>
	<circle cx="1466.31" cy="1753.34" r="18.37" style="fill:#E37E00"/>
	<circle cx="1466.31" cy="1753.34" r="15.35" style="fill:none;stroke:#E37E00;stroke-width:6.05"/>
	<circle cx="1019.08" cy="975.55" r="18.37" style="fill:#E37E00"/>
	<circle cx="1019.08" cy="975.55" r="15.35" style="fill:none;stroke:#E37E00;stroke-width:6.05"/>
	<circle cx="1354.44" cy="1919.42" r="18.37" style="fill:#E37E00"/>
	<circle cx="1354.44" cy="1919.42" r="15.35" style="fill:none;stroke:#E37E00;stroke-width:6.05"/>
	<circle cx="795.34" cy="823.58" r="18.37" style="fill:#E37E00"/>
	<circle cx="795.34" cy="823.58" r="15.35" style="fill:none;stroke:#E37E00;stroke-width:6.05"/>
	<circle cx="795.34" cy="356.16" r="18.37" style="fill:#E37E00"/>
	<circle cx="795.34" cy="356.16" r="15.35" style="fill:none;stroke:#E37E00;stroke-width:6.05"/>
	<circle cx="1578.18" cy="145.16" r="18.37" style="fill:#E37E00"/>
	<circle cx="1578.18" cy="145.16" r="15.35" style="fill:none;stroke:#E37E00;stroke-width:6.05"/>
	<circle cx="2472.77" cy="2036.86" r="18.37" style="fill:#E37E00"/>
	<circle cx="2472.77" cy="2036.86" r="15.35" style="fill:none;stroke:#E37E00;stroke-width:6.05"/>
	<circle cx="1019.08" cy="1675.87" r="18.37" style="fill:#E37E00"/>
	<circle cx="1019.08" cy="1675.87" r="15.35" style="fill:none;stroke:#E37E00;stroke-width:6.05"/>
	<circle cx="1689.93" cy="1856.06" r="18.37" style="fill:#E37E00"/>
	<circle cx="1689.93" cy="1856.06" r="15.35" style="fill:none;stroke:#E37E00;stroke-width:6.05"/>
	<circle cx="1689.93" cy="1766.09" r="18.37" style="fill:#E37E00"/>
	<circle cx="1689.93" cy="1766.09" r="15.35" style="fill:none;stroke:#E37E00;stroke-width:6.05"/>
	<circle cx="1913.67" cy="1981.67" r="18.37" style="fill:#E37E00"/>
	<circle cx="1913.67" cy="1981.67" r="15.35" style="fill:none;stroke:#E37E00;stroke-width:6.05"/>
	<circle cx="1354.44" cy="1938.48" r="18.37" style="fill:#E37E00"/>
	<circle cx="1354.44" cy="1938.48" r="15.35" style="fill:none;stroke:#E37E00;stroke-width:6.05"/>
	<circle cx="2584.64" cy="1934.15" r="18.37" style="fill:#E37E00"/>
	<circle cx="2584.64" cy="1934.15" r="15.35" style="fill:none;stroke:#E37E00;stroke-width:6.05"/>
	<circle cx="1242.70" cy="1930.19" r="18.37" style="fill:#E37E00"/>
	<circle cx="1242.70" cy="1930.19" r="15.35" style="fill:none;stroke:#E37E00;stroke-width:6.05"/>
	<circle cx="1019.08" cy="1648.77" r="18.37" style="fill:#E37E00"/>
	<circle cx="1019.08" cy="1648.77" r="15.35" style="fill:none;stroke:#E37E00;stroke-width:6.05"/>
	<circle cx="1130.83" cy="1580.34" r="18.37" style="fill:#E37E00"/>
	<circle cx="1130.83" cy="1580.34" r="15.35" style="fill:none;stroke:#E37E00;stroke-width:6.05"/>
	<circle cx="2360.90" cy="1873.39" r="18.37" style="fill:#E37E00"/>
	<circle cx="2360.90" cy="1873.39" r="15.35" style="fill:none;stroke:#E37E00;stroke-width:6.05"/>
	<circle cx="1578.18" cy="1903.71" r="18.37" style="fill:#E37E00"/>
	<circle cx="1578.18" cy="1903.71" r="15.35" style="fill:none;stroke:#E37E00;stroke-width:6.05"/>
	<circle cx="571.73" cy="806.75" r="18.37" style="fill:#E37E00"/>
	<circle cx="571.73" cy="806.75" r="15.35" style="fill:none;stroke:#E37E00;stroke-width:6.05"/>
	<circle cx="571.73" cy="492.17" r="18.37" style="fill:#E37E00"/>
	<circle cx="571.73" cy="492.17" r="15.35" style="fill:none;stroke:#E37E00;stroke-width:6.05"/>
	<circle cx="795.34" cy="511.35" r="18.37" style="fill:#E37E00"/>
	<circle cx="795.34" cy="511.35" r="15.35" style="fill:none;stroke:#E37E00;stroke-width:6.05"/>
	<circle cx="1689.93" cy="1957.41" r="18.37" style="fill:#E37E00"/>
	<circle cx="1689.93" cy="1957.41" r="15.35" style="fill:none;stroke:#E37E00;stroke-width:6.05"/>
	<circle cx="795.34" cy="1724.76" r="18.37" style="fill:#E37E00"/>
	<circle cx="795.34" cy="1724.76" r="15.35" style="fill:none;stroke:#E37E00;stroke-width:6.05"/>
	<circle cx="907.21" cy="1606.82" r="18.37" style="fill:#E37E00"/>
	<circle cx="907.21" cy="1606.82" r="15.35" style="fill:none;stroke:#E37E00;stroke-width:6.05"/>
	<circle cx="1242.70" cy="1854.33" r="18.37" style="fill:#E37E00"/>
	<circle cx="1242.70" cy="1854.33" r="15.35" style="fill:none;stroke:#E37E00;stroke-width:6.05"/>
	<circle cx="795.34" cy="1586.15" r="18.37" style="fill:#E37E00"/>
	<circle cx="795.34" cy="1586.15" r="15.35" style="fill:none;stroke:#E37E00;stroke-width:6.05"/>
	<circle cx="1466.31" cy="2038.10" r="18.37" style="fill:#E37E00"/>
	<circle cx="1466.31" cy="2038.10" r="15.35" style="fill:none;stroke:#E37E00;stroke-width:6.05"/>
	<circle cx="1578.18" cy="1209.32" r="18.37" style="fill:#E37E00"/>
	<circle cx="1578.18" cy="1209.32" r="15.35" style="fill:none;stroke:#E37E00;stroke-width:6.05"/>
	<circle cx="1354.44" cy="1755.82" r="18.37" style="fill:#E37E00"/>
	<circle cx="1354.44" cy="1755.82" r="15.35" style="fill:none;stroke:#E37E00;stroke-width:6.05"/>
	<circle cx="1354.44" cy="1821.78" r="18.37" style="fill:#E37E00"/>
	<circle cx="1354.44" cy="1821.78" r="15.35" style="fill:none;stroke:#E37E00;stroke-width:6.05"/>
	<circle cx="1242.70" cy="1798.14" r="18.37" style="fill:#E37E00"/>
	<circle cx="1242.70" cy="1798.14" r="15.35" style="fill:none;stroke:#E37E00;stroke-width:6.05"/>
	<circle cx="1354.44" cy="1904.57" r="18.37" style="fill:#E37E00"/>
	<circle cx="1354.44" cy="1904.57" r="15.35" style="fill:none;stroke:#E37E00;stroke-width:6.05"/>
	<circle cx="1913.67" cy="1902.47" r="18.37" style="fill:#E37E00"/>
	<circle cx="1913.67" cy="1902.47" r="15.35" style="fill:none;stroke:#E37E00;stroke-width:6.05"/>
	<circle cx="1019.08" cy="975.80" r="18.37" style="fill:#E37E00"/>
	<circle cx="1019.08" cy="975.80" r="15.35" style="fill:none;stroke:#E37E00;stroke-width:6.05"/>
	<circle cx="2360.90" cy="1834.65" r="18.37" style="fill:#E37E00"/>
	<circle cx="2360.90" cy="1834.65" r="15.35" style="fill:none;stroke:#E37E00;stroke-width:6.05"/>
	<circle cx="3031.88" cy="1867.94" r="18.37" style="fill:#E37E00"/>
	<circle cx="3031.88" cy="1867.94" r="15.35" style="fill:none;stroke:#E37E00;stroke-width:6.05"/>
	<circle cx="2025.42" cy="1859.40" r="18.37" style="fill:#E37E00"/>
	<circle cx="2025.42" cy="1859.40" r="15.35" style="fill:none;stroke:#E37E00;stroke-width:6.05"/>
	<circle cx="2137.29" cy="1558.68" r="18.37" style="fill:#E37E00"/>
	<circle cx="2137.29" cy="1558.68" r="15.35" style="fill:none;stroke:#E37E00;stroke-width:6.05"/>
	<circle cx="1242.70" cy="1922.76" r="18.37" style="fill:#E37E00"/>
	<circle cx="1242.70" cy="1922.76" r="15.35" style="fill:none;stroke:#E37E00;stroke-width:6.05"/>
	<circle cx="1242.70" cy="1661.89" r="18.37" style="fill:#E37E00"/>
	<circle cx="1242.70" cy="1661.89" r="15.35" style="fill:none;stroke:#E37E00;stroke-width:6.05"/>
	<circle cx="1242.70" cy="1791.58" r="18.37" style="fill:#E37E00"/>
	<circle cx="1242.70" cy="1791.58" r="15.35" style="fill:none;stroke:#E37E00;stroke-width:6.05"/>
	<circle cx="1354.44" cy="1748.39" r="18.37" style="fill:#E37E00"/>
	<circle cx="1354.44" cy="1748.39" r="15.35" style="fill:none;stroke:#E37E00;stroke-width:6.05"/>
	<circle cx="1354.44" cy="1823.27" r="18.37" style="fill:#E37E00"/>
	<circle cx="1354.44" cy="1823.27" r="15.35" style="fill:none;stroke:#E37E00;stroke-width:6.05"/>
	<circle cx="1354.44" cy="1868.06" r="18.37" style="fill:#E37E00"/>
	<circle cx="1354.44" cy="1868.06" r="15.35" style="fill:none;stroke:#E37E00;stroke-width:6.05"/>
	<circle cx="1913.67" cy="1905.93" r="18.37" style="fill:#E37E00"/>
	<circle cx="1913.67" cy="1905.93" r="15.35" style="fill:none;stroke:#E37E00;stroke-width:6.05"/>
	<circle cx="1130.83" cy="1077.90" r="18.37" style="fill:#E37E00"/>
	<circle cx="1130.83" cy="1077.90" r="15.35" style="fill:none;stroke:#E37E00;stroke-width:6.05"/>
	<circle cx="1801.80" cy="1587.39" r="18.37" style="fill:#E37E00"/>
	<circle cx="1801.80" cy="1587.39" r="15.35" style="fill:none;stroke:#E37E00;stroke-width:6.05"/>
	<circle cx="2025.42" cy="1071.21" r="18.37" style="fill:#E37E00"/>
	<circle cx="2025.42" cy="1071.21" r="15.35" style="fill:none;stroke:#E37E00;stroke-width:6.05"/>
	<circle cx="1801.80" cy="1597.29" r="18.37" style="fill:#E37E00"/>
	<circle cx="1801.80" cy="1597.29" r="15.35" style="fill:none;stroke:#E37E00;stroke-width:6.05"/>
	<circle cx="3143.74" cy="1843.31" r="18.37" style="fill:#E37E00"/>
	<circle cx="3143.74" cy="1843.31" r="15.35" style="fill:none;stroke:#E37E00;stroke-width:6.05"/>
	<circle cx="1913.67" cy="1769.80" r="18.37" style="fill:#E37E00"/>
	<circle cx="1913.67" cy="1769.80" r="15.35" style="fill:none;stroke:#E37E00;stroke-width:6.05"/>
	<circle cx="1578.18" cy="1312.16" r="18.37" style="fill:#E37E00"/>
	<circle cx="1578.18" cy="1312.16" r="15.35" style="fill:none;stroke:#E37E00;stroke-width:6.05"/>
	<circle cx="1578.18" cy="1887.25" r="18.37" style="fill:#E37E00"/>
	<circle cx="1578.18" cy="1887.25" r="15.35" style="fill:none;stroke:#E37E00;stroke-width:6.05"/>
	<circle cx="2025.42" cy="1661.77" r="18.37" style="fill:#E37E00"/>
	<circle cx="2025.42" cy="1661.77" r="15.35" style="fill:none;stroke:#E37E00;stroke-width:6.05"/>
	<circle cx="2360.90" cy="1856.80" r="18.37" style="fill:#E37E00"/>
	<circle cx="2360.90" cy="1856.80" r="15.35" style="fill:none;stroke:#E37E00;stroke-width:6.05"/>
	<circle cx="2584.64" cy="1932.42" r="18.37" style="fill:#E37E00"/>
	<circle cx="2584.64" cy="1932.42" r="15.35" style="fill:none;stroke:#E37E00;stroke-width:6.05"/>
	<circle cx="795.34" cy="582.76" r="18.37" style="fill:#E37E00"/>
	<circle cx="795.34" cy="582.76" r="15.35" style="fill:none;stroke:#E37E00;stroke-width:6.05"/>
	<circle cx="2137.29" cy="1947.51" r="18.37" style="fill:#E37E00"/>
	<circle cx="2137.29" cy="1947.51" r="15.35" style="fill:none;stroke:#E37E00;stroke-width:6.05"/>
	<circle cx="3143.74" cy="1961.99" r="18.37" style="fill:#E37E00"/>
	<circle cx="3143.74" cy="1961.99" r="15.35" style="fill:none;stroke:#E37E00;stroke-width:6.05"/>
	<circle cx="1242.70" cy="1646.79" r="18.37" style="fill:#E37E00"/>
	<circle cx="1242.70" cy="1646.79" r="15.35" style="fill:none;stroke:#E37E00;stroke-width:6.05"/>
	<circle cx="2696.39" cy="1969.54" r="18.37" style="fill:#E37E00"/>
	<circle cx="2696.39" cy="1969.54" r="15.35" style="fill:none;stroke:#E37E00;stroke-width:6.05"/>
	<circle cx="1242.70" cy="1673.77" r="18.37" style="fill:#E37E00"/>
	<circle cx="1242.70" cy="1673.77" r="15.35" style="fill:none;stroke:#E37E00;stroke-width:6.05"/>
	<circle cx="1801.80" cy="1460.54" r="18.37" style="fill:#E37E00"/>
	<circle cx="1801.80" cy="1460.54" r="15.35" style="fill:none;stroke:#E37E00;stroke-width:6.05"/>
	<circle cx="3814.72" cy="1722.04" r="18.37" style="fill:#E37E00"/>
	<circle cx="3814.72" cy="1722.04" r="15.35" style="fill:none;stroke:#E37E00;stroke-width:6.05"/>
	<circle cx="2025.42" cy="1827.10" r="18.37" style="fill:#E37E00"/>
	<circle cx="2025.42" cy="1827.10" r="15.35" style="fill:none;stroke:#E37E00;stroke-width:6.05"/>
	<circle cx="2025.42" cy="1504.10" r="18.37" style="fill:#E37E00"/>
	<circle cx="2025.42" cy="1504.10" r="15.35" style="fill:none;stroke:#E37E00;stroke-width:6.05"/>
	<circle cx="1130.83" cy="732.00" r="18.37" style="fill:#E37E00"/>
	<circle cx="1130.83" cy="732.00" r="15.35" style="fill:none;stroke:#E37E00;stroke-width:6.05"/>
	<line x1="303.81" y1="2576.18" x2="303.81" y2="100.86" style="stroke:#000000;stroke-width:4.03"/>
	<line x1="303.81" y1="2531.88" x2="275.84" y2="2531.88" style="stroke:#000000;stroke-width:4.03"/>
	<text x="240.66" y="2531.88" style="font-family:'Helvetica';font-size:70.04px;fill:#000000" transform="rotate(-90 240.66,2531.88)" text-anchor="middle">0</text>
	<line x1="303.81" y1="1781.56" x2="275.84" y2="1781.56" style="stroke:#000000;stroke-width:4.03"/>
	<text x="240.66" y="1781.56" style="font-family:'Helvetica';font-size:70.04px;fill:#000000" transform="rotate(-90 240.66,1781.56)" text-anchor="middle">5,000</text>
	<line x1="303.81" y1="1031.36" x2="275.84" y2="1031.36" style="stroke:#000000;stroke-width:4.03"/>
	<text x="240.66" y="1031.36" style="font-family:'Helvetica';font-size:70.04px;fill:#000000" transform="rotate(-90 240.66,1031.36)" text-anchor="middle">10,000</text>
	<line x1="303.81" y1="281.05" x2="275.84" y2="281.05" style="stroke:#000000;stroke-width:4.03"/>
	<text x="240.66" y="281.05" style="font-family:'Helvetica';font-size:70.04px;fill:#000000" transform="rotate(-90 240.66,281.05)" text-anchor="middle">15,000</text>
	<text x="163.68" y="1338.52" style="font-family:'Helvetica';font-size:70.04px;fill:#000000" transform="rotate(-90 163.68,1338.52)" text-anchor="middle">Price</text>
	<line x1="303.81" y1="2576.18" x2="3859.02" y2="2576.18" style="stroke:#000000;stroke-width:4.03"/>
	<line x1="348.11" y1="2576.18" x2="348.11" y2="2604.15" style="stroke:#000000;stroke-width:4.03"/>
	<text x="348.11" y="2667.23" style="font-family:'Helvetica';font-size:70.04px;fill:#000000" text-anchor="middle">10</text>
	<line x1="1466.44" y1="2576.18" x2="1466.44" y2="2604.15" style="stroke:#000000;stroke-width:4.03"/>
	<text x="1466.44" y="2667.23" style="font-family:'Helvetica';font-size:70.04px;fill:#000000" text-anchor="middle">20</text>
	<line x1="2584.64" y1="2576.18" x2="2584.64" y2="2604.15" style="stroke:#000000;stroke-width:4.03"/>
	<text x="2584.64" y="2667.23" style="font-family:'Helvetica';font-size:70.04px;fill:#000000" text-anchor="middle">30</text>
	<line x1="3702.85" y1="2576.18" x2="3702.85" y2="2604.15" style="stroke:#000000;stroke-width:4.03"/>
	<text x="3702.85" y="2667.23" style="font-family:'Helvetica';font-size:70.04px;fill:#000000" text-anchor="middle">40</text>
	<text x="2081.47" y="2744.08" style="font-family:'Helvetica';font-size:70.04px;fill:#000000" text-anchor="middle">Mileage (mpg)</text>
</svg>
