<?xml version="1.0" encoding="utf-8"?>
<!-- Generator: Adobe Illustrator 22.1.0, SVG Export Plug-In . SVG Version: 6.00 Build 0)  -->
<svg version="1.1" id="Layer_1" xmlns="http://www.w3.org/2000/svg" xmlns:xlink="http://www.w3.org/1999/xlink" x="0px" y="0px"
	 viewBox="0 0 1011 1065" style="enable-background:new 0 0 1011 1065;" xml:space="preserve">
<style type="text/css">
	.st0{fill:#FFFFFF;stroke:#D46C5B;stroke-width:5;stroke-miterlimit:10;}
	.st1{fill:#D46C5B;}
	.st2{fill:#D46C5B;stroke:#D46C5B;stroke-width:5;stroke-miterlimit:10;}
	.st3{fill:#444444;stroke:#444444;stroke-width:10;stroke-miterlimit:10;}
	.st4{fill:#444444;stroke:#444444;stroke-width:11;stroke-miterlimit:10;}
</style>
<g id="XMLID_1_">
	<g>
		<path class="st0" d="M926,255.7v479.8L510.5,975.4L95,735.5V255.7L510.5,15.8L926,255.7z M886,712.6V279L510.5,62.2L135,279v433.6
			l375.5,216.8L886,712.6z"/>
		<polygon class="st0" points="886,279 886,712.6 510.5,929.4 135,712.6 135,279 510.5,62.2 		"/>
	</g>
	<g>
		<polygon class="st1" points="926,735.5 510.5,975.4 95,735.5 95,255.7 510.5,15.8 926,255.7 		"/>
		<polygon class="st0" points="886,712.6 510.5,929.4 135,712.6 135,279 510.5,62.2 886,279 		"/>
	</g>
</g>
<g>
	<g>
		<path class="st2" d="M255.6,327.8c130,0,259.9,0,389.9,0c36.7,0,73.3,0,110,0c10.5,0,20.5-9.2,20-20s-8.8-20-20-20
			c-130,0-259.9,0-389.9,0c-36.7,0-73.3,0-110,0c-10.5,0-20.5,9.2-20,20C236.1,318.6,244.4,327.8,255.6,327.8L255.6,327.8z"/>
	</g>
</g>
<g>
	<g>
		<path class="st2" d="M313.4,467.7c102.2,0,204.5,0,306.7,0c29.2,0,58.4,0,87.6,0c10.5,0,20.5-9.2,20-20s-8.8-20-20-20
			c-102.2,0-204.5,0-306.7,0c-29.2,0-58.4,0-87.6,0c-10.5,0-20.5,9.2-20,20C293.9,458.5,302.2,467.7,313.4,467.7L313.4,467.7z"/>
	</g>
</g>
<g>
	<g>
		<path class="st2" d="M381.4,607.6c66.9,0,133.8,0,200.7,0c19.2,0,38.4,0,57.6,0c10.5,0,20.5-9.2,20-20s-8.8-20-20-20
			c-66.9,0-133.8,0-200.7,0c-19.2,0-38.4,0-57.6,0c-10.5,0-20.5,9.2-20,20C361.9,598.4,370.2,607.6,381.4,607.6L381.4,607.6z"/>
	</g>
</g>
<g>
	<g>
		<path class="st2" d="M437.8,745.7c48.4-0.2,96.9-0.4,145.3-0.6c10.5,0,20.5-9.2,20-20s-8.8-20-20-20c-48.4,0.2-96.9,0.4-145.3,0.6
			c-10.5,0-20.5,9.2-20,20C418.2,736.5,426.6,745.7,437.8,745.7L437.8,745.7z"/>
	</g>
</g>
<g>
	<g>
		<path class="st3" d="M260.6,334c13.1,0,25.6-11.5,25-25s-11-25-25-25c-13.1,0-25.6,11.5-25,25S246.6,334,260.6,334L260.6,334z"/>
	</g>
</g>
<g>
	<g>
		<path class="st3" d="M752.7,334c13.1,0,25.6-11.5,25-25s-11-25-25-25c-13.1,0-25.6,11.5-25,25S738.7,334,752.7,334L752.7,334z"/>
	</g>
</g>
<g>
	<g>
		<path class="st3" d="M318.4,472.6c13.1,0,25.6-11.5,25-25s-11-25-25-25c-13.1,0-25.6,11.5-25,25S304.4,472.6,318.4,472.6
			L318.4,472.6z"/>
	</g>
</g>
<g>
	<g>
		<path class="st3" d="M702.6,472.6c13.1,0,25.6-11.5,25-25s-11-25-25-25c-13.1,0-25.6,11.5-25,25
			C678.2,461.1,688.6,472.6,702.6,472.6L702.6,472.6z"/>
	</g>
</g>
<g>
	<g>
		<path class="st3" d="M386.4,611.6c13.1,0,25.6-11.5,25-25s-11-25-25-25c-13.1,0-25.6,11.5-25,25S372.4,611.6,386.4,611.6
			L386.4,611.6z"/>
	</g>
</g>
<g>
	<g>
		<path class="st3" d="M634.6,611.6c13.1,0,25.6-11.5,25-25s-11-25-25-25c-13.1,0-25.6,11.5-25,25
			C610.2,600.1,620.6,611.6,634.6,611.6L634.6,611.6z"/>
	</g>
</g>
<g>
	<g>
		<path class="st4" d="M442.9,749.6c13.1,0,25.6-11.5,25-25s-11-25-25-25c-13.1,0-25.6,11.5-25,25S428.9,749.6,442.9,749.6
			L442.9,749.6z"/>
	</g>
</g>
<g>
	<g>
		<path class="st3" d="M583.1,749.6c13.1,0,25.6-11.5,25-25s-11-25-25-25c-13.1,0-25.6,11.5-25,25
			C558.7,738.1,569.1,749.6,583.1,749.6L583.1,749.6z"/>
	</g>
</g>
</svg>
